<?xml version="1.0" encoding="UTF-8"?>
<svg id="Layer_2" data-name="Layer 2" xmlns="http://www.w3.org/2000/svg" viewBox="0 0 107.5 101.85">
  <defs>
    <style>
      .cls-1 {
        fill: #d5e7b4;
      }
    </style>
  </defs>
  <g id="about">
    <path class="cls-1" d="M57.26,16.62L78.63,1.35c5.55-3.96,12.93,1.47,10.79,7.95l-8.05,24.35c-.83,2.51.07,5.27,2.22,6.81l20.93,14.96c5.58,3.99,2.76,12.79-4.1,12.79h-26.11c-2.61,0-4.92,1.67-5.73,4.14l-8.15,24.67c-2.13,6.45-11.26,6.45-13.39,0l-8.15-24.67c-.82-2.47-3.13-4.14-5.73-4.14H7.06c-6.86,0-9.68-8.8-4.1-12.79l20.93-14.96c2.15-1.54,3.05-4.3,2.22-6.81l-8.05-24.35c-2.14-6.48,5.25-11.91,10.79-7.95l21.37,15.27c2.1,1.5,4.92,1.5,7.02,0Z"/>
  </g>
</svg>